HIERARCHY
ROOT Hips
{
 OFFSET 0.000000 0.000000 0.000000
 CHANNELS 6 Xposition Yposition Zposition Yrotation Xrotation Zrotation
 JOINT Chest
 {
  OFFSET 0.000000 9.588913 -0.003946
  CHANNELS 3 Yrotation Xrotation Zrotation
  JOINT Chest2
  {
   OFFSET 0.000000 9.541882 0.008053
   CHANNELS 3 Yrotation Xrotation Zrotation
   JOINT Chest3
   {
    OFFSET 0.000000 9.501360 0.000000
    CHANNELS 3 Yrotation Xrotation Zrotation
    JOINT Chest4
    {
     OFFSET 0.000000 9.491660 0.000000
     CHANNELS 3 Yrotation Xrotation Zrotation
     JOINT Neck
     {
      OFFSET 0.000000 14.331917 0.000000
      CHANNELS 3 Yrotation Xrotation Zrotation
      JOINT Head
      {
       OFFSET 0.000000 8.884799 0.017034
       CHANNELS 3 Yrotation Xrotation Zrotation
       End Site
       {
        OFFSET 0.000000 16.896195 0.008993
       }
      }
     }
     JOINT RightCollar
     {
      OFFSET -2.923010 9.499495 0.000000
      CHANNELS 3 Yrotation Xrotation Zrotation
      JOINT RightShoulder
      {
       OFFSET -13.795216 0.000000 0.000000
       CHANNELS 3 Yrotation Xrotation Zrotation
       JOINT RightElbow
       {
        OFFSET -30.272209 0.000000 0.000000
        CHANNELS 3 Yrotation Xrotation Zrotation
        JOINT RightWrist
        {
         OFFSET -24.478199 0.000000 0.000000
         CHANNELS 3 Yrotation Xrotation Zrotation
         End Site
         {
          OFFSET -18.090752 0.000000 0.000000
         }
        }
       }
      }
     }
     JOINT LeftCollar
     {
      OFFSET 2.923010 9.499495 0.000000
      CHANNELS 3 Yrotation Xrotation Zrotation
      JOINT LeftShoulder
      {
       OFFSET 13.795216 0.000000 0.000000
       CHANNELS 3 Yrotation Xrotation Zrotation
       JOINT LeftElbow
       {
        OFFSET 30.272209 0.000000 0.000000
        CHANNELS 3 Yrotation Xrotation Zrotation
        JOINT LeftWrist
        {
         OFFSET 24.478199 0.000000 0.000000
         CHANNELS 3 Yrotation Xrotation Zrotation
         End Site
         {
          OFFSET 18.090752 0.000000 0.000000
         }
        }
       }
      }
     }
    }
   }
  }
 }
 JOINT RightHip
 {
  OFFSET -7.826875 0.019532 0.001973
  CHANNELS 3 Yrotation Xrotation Zrotation
  JOINT RightKnee
  {
   OFFSET 0.000000 -40.546152 -0.001885
   CHANNELS 3 Yrotation Xrotation Zrotation
   JOINT RightAnkle
   {
    OFFSET 0.000000 -39.417092 -0.003189
    CHANNELS 3 Yrotation Xrotation Zrotation
    JOINT RightToe
    {
     OFFSET 0.000000 -7.579396 17.243563
     CHANNELS 3 Yrotation Xrotation Zrotation
     End Site
     {
      OFFSET 0.000000 -1.500329 6.694466
     }
    }
   }
  }
 }
 JOINT LeftHip
 {
  OFFSET 7.826875 0.019532 0.001973
  CHANNELS 3 Yrotation Xrotation Zrotation
  JOINT LeftKnee
  {
   OFFSET 0.000000 -40.546152 -0.001885
   CHANNELS 3 Yrotation Xrotation Zrotation
   JOINT LeftAnkle
   {
    OFFSET 0.000000 -39.417092 -0.003189
    CHANNELS 3 Yrotation Xrotation Zrotation
    JOINT LeftToe
    {
     OFFSET 0.000000 -7.579396 17.243563
     CHANNELS 3 Yrotation Xrotation Zrotation
     End Site
     {
      OFFSET 0.000000 -1.500329 6.694466
     }
    }
   }
  }
 }
}
MOTION
Frames: 16
Frame Time: 0.008333
0.000000 87.345680 0.000000 0.000000 -5.767889 0.000000 0.000000 11.653876 0.000000 0.000000 -5.885988 0.000000 0.000000 -0.000000 0.000000 0.000000 -0.000000 0.000000 0.000000 12.528808 0.000000 0.000000 0.711711 0.000000 0.000000 -0.000000 0.000000 0.000000 -0.000000 0.000000 2.309063 -0.000000 0.000000 -2.309063 -0.000000 -0.000000 0.000000 -0.000000 0.000000 0.000000 0.000000 0.000000 -2.309063 0.000000 0.000000 2.309063 -0.000000 0.000000 0.000000 8.520374 0.000000 0.000000 1.905768 0.000000 -0.000000 -4.658254 0.000000 0.000000 -0.000000 0.000000 0.000000 8.520374 0.000000 0.000000 1.905768 0.000000 -0.000000 -4.658254 0.000000 0.000000 -0.000000 0.000000
13.477689 89.082568 -2.343119 49.709414 -7.740523 -1.438167 -0.608960 2.810318 0.981820 -0.368309 1.608913 0.629851 -0.457665 2.011764 0.785774 -0.368309 1.608913 0.629851 -0.409035 20.448704 -1.301803 -0.138562 -4.029477 -1.292223 1.067815 3.339002 -2.250659 5.355374 -9.144675 86.505658 7.215754 0.157030 0.379464 0.266461 -4.058588 -1.550951 -3.089705 1.443554 2.478616 5.214051 -5.684124 -90.218758 -1.517756 -3.912992 0.190530 -1.198519 -0.972399 0.991426 -3.110662 8.125618 -1.192196 1.195344 4.034724 -0.188242 0.999644 -4.643981 3.313546 0.012806 -0.163208 0.013536 5.214120 11.279866 1.834831 -5.704987 1.746204 0.506083 -0.635818 -5.874187 0.526576 0.012038 0.140929 0.014193
13.501891 89.080813 -2.336222 49.693212 -7.744180 -1.447447 -0.615159 2.800674 0.976776 -0.372047 1.601776 0.628071 -0.462358 2.002847 0.783538 -0.372047 1.601776 0.628071 -0.404118 20.465874 -1.292275 -0.135524 -4.009961 -1.283289 1.048683 3.363379 -2.234713 5.312021 -9.109054 86.536549 7.178513 0.150399 0.362509 0.264432 -4.057550 -1.550946 -3.077778 1.486481 2.488190 5.150894 -5.649144 -90.284947 -1.345622 -3.883686 0.309379 -1.117866 -0.927156 0.931604 -3.102276 8.130316 -1.190632 1.192612 4.059432 -0.188795 1.008944 -4.664005 3.320751 0.011340 -0.164954 0.012392 5.220196 11.306967 1.838118 -5.694718 1.735556 0.506092 -0.631956 -5.884179 0.536338 0.010862 0.140686 0.011343
13.529356 89.078789 -2.328305 49.674791 -7.746539 -1.458447 -0.619106 2.790559 0.973060 -0.374509 1.594979 0.626443 -0.465454 1.994353 0.781499 -0.374509 1.594979 0.626443 -0.400049 20.484670 -1.283839 -0.133142 -3.988558 -1.275336 1.029861 3.386836 -2.216822 5.271230 -9.069965 86.564464 7.139763 0.139910 0.344248 0.260210 -4.056876 -1.549596 -3.062482 1.525752 2.496282 5.088711 -5.609977 -90.346107 -1.181809 -3.853541 0.427223 -1.037698 -0.879754 0.872455 -3.092461 8.136702 -1.186954 1.191525 4.081893 -0.191250 1.015073 -4.683983 3.330183 0.010890 -0.167019 0.011189 5.224860 11.335273 1.841426 -5.686379 1.725055 0.507791 -0.625207 -5.896311 0.545454 0.010353 0.140236 0.009404
13.559260 89.076632 -2.319558 49.657275 -7.749560 -1.470450 -0.621788 2.780253 0.969961 -0.376233 1.588514 0.625164 -0.467625 1.986274 0.779898 -0.376233 1.588514 0.625164 -0.396841 20.506756 -1.276730 -0.131379 -3.963354 -1.268617 1.009319 3.409646 -2.197557 5.233977 -9.027845 86.588913 7.096368 0.127702 0.327146 0.257204 -4.056908 -1.549709 -3.044668 1.560198 2.502655 5.030765 -5.563168 -90.403605 -1.022848 -3.823473 0.541724 -0.961253 -0.836339 0.816711 -3.084740 8.147789 -1.183348 1.190851 4.099622 -0.193340 1.020303 -4.702873 3.339287 0.010901 -0.169053 0.010790 5.229984 11.365350 1.846784 -5.678150 1.715230 0.506780 -0.620610 -5.909608 0.556138 0.009795 0.139413 0.008239
13.590532 89.074421 -2.310348 49.640845 -7.753381 -1.482941 -0.623382 2.769522 0.966629 -0.377151 1.582124 0.623905 -0.468789 1.978287 0.778326 -0.377152 1.582124 0.623904 -0.393318 20.532164 -1.269323 -0.129353 -3.934336 -1.261671 0.986277 3.432632 -2.177913 5.200816 -8.983098 86.611704 7.048248 0.113010 0.311555 0.256551 -4.054398 -1.552958 -3.026424 1.591654 2.510974 4.984182 -5.510264 -90.459905 -0.868142 -3.794043 0.651300 -0.888579 -0.798252 0.767220 -3.080424 8.163001 -1.180121 1.190951 4.112682 -0.195540 1.025988 -4.720565 3.348862 0.010900 -0.170744 0.010396 5.236320 11.396447 1.853677 -5.670062 1.706384 0.503367 -0.618000 -5.923876 0.568789 0.009008 0.138550 0.007109
13.622020 89.072169 -2.301138 49.622579 -7.756323 -1.495751 -0.622562 2.758312 0.963513 -0.376534 1.575599 0.622776 -0.468032 1.970128 0.776923 -0.376534 1.575599 0.622776 -0.390182 20.559693 -1.261201 -0.127904 -3.902883 -1.253886 0.959556 3.455327 -2.159399 5.173774 -8.937558 86.634334 6.991135 0.093141 0.294776 0.256196 -4.052710 -1.558032 -3.009767 1.620823 2.519773 4.955107 -5.453315 -90.514090 -0.720380 -3.761387 0.752645 -0.820738 -0.768554 0.728051 -3.075940 8.178770 -1.176649 1.191601 4.122653 -0.198553 1.033676 -4.737232 3.360941 0.011004 -0.171975 0.008712 5.244779 11.427245 1.860372 -5.661815 1.696941 0.501103 -0.615048 -5.938317 0.580342 0.008346 0.137980 0.006695
13.653183 89.069888 -2.292370 49.601151 -7.758066 -1.507516 -0.619529 2.747077 0.961290 -0.374700 1.569116 0.621853 -0.465754 1.962021 0.775784 -0.374700 1.569116 0.621853 -0.387535 20.588328 -1.253571 -0.126865 -3.870137 -1.246519 0.931267 3.477010 -2.144512 5.150723 -8.893775 86.658555 6.923004 0.071603 0.275762 0.253898 -4.055855 -1.562111 -2.992779 1.648138 2.524779 4.945244 -5.393287 -90.561524 -0.581856 -3.724240 0.840230 -0.759481 -0.748353 0.699829 -3.068257 8.192515 -1.173895 1.192802 4.132819 -0.202113 1.042164 -4.754178 3.375335 0.011144 -0.172640 0.006067 5.255939 11.457141 1.865746 -5.652721 1.686726 0.499692 -0.612112 -5.952125 0.590466 0.008177 0.137398 0.007212
13.683569 89.067566 -2.284350 49.578602 -7.757813 -1.518119 -0.615926 2.735692 0.959635 -0.372583 1.562619 0.621036 -0.463122 1.953895 0.774778 -0.372583 1.562619 0.621036 -0.384291 20.616889 -1.246620 -0.125034 -3.837450 -1.240009 0.907071 3.497649 -2.132582 5.122809 -8.853415 86.685063 6.846009 0.055712 0.254253 0.249990 -4.059648 -1.563640 -2.974026 1.675111 2.527116 4.951770 -5.330860 -90.600174 -0.454699 -3.688007 0.911748 -0.707822 -0.733599 0.680283 -3.057709 8.203712 -1.172574 1.194574 4.142432 -0.203907 1.048799 -4.770901 3.388899 0.011160 -0.172606 0.003969 5.267770 11.484475 1.869688 -5.641456 1.676396 0.498236 -0.611063 -5.965259 0.601141 0.008350 0.137047 0.007353
13.712805 89.065180 -2.277272 49.557994 -7.754548 -1.527902 -0.612830 2.723624 0.958365 -0.370538 1.555821 0.620254 -0.460580 1.945393 0.773815 -0.370538 1.555821 0.620254 -0.380305 20.644252 -1.240595 -0.122201 -3.806110 -1.234648 0.887173 3.516850 -2.122558 5.089250 -8.815168 86.713854 6.761154 0.044463 0.230864 0.245779 -4.061956 -1.565619 -2.955078 1.701815 2.527132 4.973007 -5.265683 -90.630490 -0.341059 -3.651184 0.969217 -0.666848 -0.722284 0.669948 -3.046743 8.212514 -1.173204 1.195657 4.149340 -0.202296 1.053933 -4.786425 3.399522 0.011155 -0.171706 0.003135 5.275521 11.507574 1.870790 -5.627437 1.666679 0.498556 -0.611165 -5.978338 0.611657 0.008307 0.137437 0.006956
13.740922 89.062752 -2.271127 49.539190 -7.749228 -1.536028 -0.611038 2.711567 0.956754 -0.368963 1.549135 0.618995 -0.458628 1.937032 0.772254 -0.368963 1.549135 0.618995 -0.373844 20.668886 -1.234719 -0.116692 -3.777890 -1.229994 0.871917 3.532901 -2.113929 5.057627 -8.777341 86.745068 6.669172 0.032574 0.206636 0.240183 -4.064192 -1.570499 -2.935011 1.726225 2.524835 5.009502 -5.196443 -90.654076 -0.242223 -3.610212 1.017273 -0.634773 -0.714544 0.667061 -3.037023 8.219801 -1.175543 1.197235 4.153656 -0.200484 1.058529 -4.801036 3.409251 0.010780 -0.169764 0.003048 5.276836 11.527715 1.867195 -5.612300 1.657394 0.502410 -0.609385 -5.991173 0.619682 0.008141 0.138164 0.007083
13.768049 89.060328 -2.265689 49.521971 -7.743562 -1.542130 -0.610650 2.700692 0.953788 -0.368214 1.543129 0.616952 -0.457710 1.929521 0.769709 -0.368214 1.543129 0.616952 -0.364508 20.689728 -1.227807 -0.108350 -3.754032 -1.224868 0.861618 3.545614 -2.105000 5.030363 -8.739545 86.777960 6.571998 0.021466 0.181069 0.232483 -4.065838 -1.576551 -2.912822 1.747776 2.523416 5.057360 -5.122906 -90.671702 -0.157657 -3.566145 1.056420 -0.614149 -0.708435 0.665869 -3.028035 8.227587 -1.178225 1.199158 4.155156 -0.202043 1.062615 -4.815056 3.419495 0.010170 -0.166762 0.003847 5.271635 11.546361 1.859312 -5.598021 1.649275 0.508646 -0.604072 -6.003630 0.625746 0.007975 0.138676 0.007588
13.794138 89.057929 -2.260767 49.507220 -7.737783 -1.546552 -0.611238 2.691046 0.950133 -0.368168 1.537726 0.614475 -0.457671 1.922766 0.766617 -0.368168 1.537726 0.614475 -0.354982 20.706782 -1.221251 -0.099719 -3.734517 -1.220142 0.851642 3.555741 -2.096833 5.006636 -8.700968 86.812138 6.470494 0.013062 0.154439 0.224239 -4.064213 -1.580010 -2.891066 1.766465 2.523599 5.107962 -5.045599 -90.682694 -0.085879 -3.519004 1.084659 -0.605197 -0.704591 0.665870 -3.019534 8.235529 -1.180483 1.198883 4.155427 -0.207166 1.066677 -4.829192 3.429945 0.010223 -0.163075 0.005472 5.261478 11.562355 1.849394 -5.585197 1.644636 0.513774 -0.596567 -6.016863 0.632591 0.007367 0.139067 0.007640
13.819231 89.055600 -2.255990 49.494104 -7.732979 -1.550108 -0.612067 2.683275 0.946842 -0.368283 1.533298 0.611811 -0.457833 1.917228 0.763290 -0.368283 1.533298 0.611811 -0.347502 20.719014 -1.215817 -0.093003 -3.720526 -1.216120 0.841588 3.562735 -2.091330 4.983649 -8.662567 86.847494 6.364519 0.006776 0.128529 0.216960 -4.059443 -1.580309 -2.871386 1.780849 2.525433 5.153968 -4.965514 -90.688055 -0.027560 -3.469015 1.105319 -0.601572 -0.703631 0.666250 -3.011944 8.244654 -1.182741 1.197225 4.154604 -0.213238 1.070938 -4.842740 3.440145 0.010990 -0.159336 0.006976 5.250779 11.576798 1.839683 -5.572814 1.643523 0.516855 -0.590262 -6.031510 0.641226 0.006378 0.139456 0.006868
13.843635 89.053416 -2.250906 49.484109 -7.731542 -1.553692 -0.612112 2.678167 0.943644 -0.367988 1.530179 0.608977 -0.457481 1.913326 0.759752 -0.367988 1.530179 0.608977 -0.344325 20.726024 -1.210268 -0.090892 -3.712544 -1.210964 0.830731 3.568236 -2.087081 4.960674 -8.624747 86.883082 6.257396 0.002814 0.104040 0.209672 -4.055045 -1.579780 -2.854037 1.792961 2.530218 5.189099 -4.885485 -90.687696 0.017081 -3.419387 1.121952 -0.599390 -0.701577 0.664712 -3.006798 8.258672 -1.185735 1.197303 4.151000 -0.217478 1.072814 -4.854693 3.449306 0.011745 -0.155948 0.007947 5.241212 11.593146 1.831085 -5.562467 1.644143 0.519635 -0.585774 -6.046763 0.650367 0.005525 0.139661 0.005640
13.867309 89.051376 -2.245521 49.477368 -7.732560 -1.557733 -0.610664 2.675098 0.939937 -0.366919 1.527926 0.606105 -0.456161 1.910505 0.756168 -0.366919 1.527926 0.606105 -0.346002 20.728120 -1.204084 -0.094090 -3.710224 -1.203996 0.816505 3.573977 -2.082374 4.939599 -8.586250 86.917901 6.153434 0.000091 0.080716 0.201005 -4.049473 -1.578703 -2.839626 1.804229 2.537930 5.211329 -4.808139 -90.680175 0.052101 -3.371318 1.132940 -0.598368 -0.696657 0.665707 -3.003303 8.276497 -1.188937 1.199149 4.145014 -0.219707 1.071609 -4.865289 3.457464 0.012037 -0.152887 0.008370 5.233647 11.611992 1.823931 -5.555819 1.643328 0.523203 -0.582229 -6.060854 0.658362 0.005019 0.139727 0.004769
